<svg xmlns="http://www.w3.org/2000/svg" version="1.1" xmlns:xlink="http://www.w3.org/1999/xlink" xmlns:svgjs="http://svgjs.com/svgjs" width="512" height="512" x="0" y="0" viewBox="0 0 48 48" style="enable-background:new 0 0 512 512" xml:space="preserve" class=""><g><path fill="#f2ebd7" d="M36 17h-2.35a3.44 3.44 0 0 0-1.15-4.36 3 3 0 0 0-3.78-4.34 6 6 0 0 0-9-.49 3.46 3.46 0 0 0-5.66 2.24A4.48 4.48 0 0 0 11 17.32V40a2 2 0 0 0 2 2h18a2 2 0 0 0 2-2v-7h3a5 5 0 0 0 5-5v-6a5 5 0 0 0-5-5zm3 11a3 3 0 0 1-3 3h-3V19h3a3 3 0 0 1 3 3z" data-original="#f2ebd7"></path><path fill="#fcb138" d="M31 20v16a3 3 0 0 1-3 3H16a3 3 0 0 1-3-3V18.75a4.49 4.49 0 0 0 5-1.44c0 4.58-.32 5.61 1 6.41A2 2 0 0 0 22 22c0-4.07-.07-4.43 0-4.33a2 2 0 0 1 3.94 0c.1 0 0-.34 0 2.34a2 2 0 0 0 4 0z" data-original="#fcb138"></path><path fill="#131239" d="M36 17h-1.26a4.48 4.48 0 0 0-1-4.61A4 4 0 0 0 29 7.13a7 7 0 0 0-9.4-.59 4.47 4.47 0 0 0-6.4 2.64 5.47 5.47 0 0 0-3.2 8.47V40a3 3 0 0 0 3 3h18a3 3 0 0 0 3-3v-7h2a5 5 0 0 0 5-5v-6a5 5 0 0 0-5-5zm-21.85-6a1 1 0 0 0 .89-.86 2.47 2.47 0 0 1 4-1.6 1 1 0 0 0 1.36-.07 5 5 0 0 1 7.5.41 1 1 0 0 0 1.23.28 2 2 0 0 1 2.51 2.89 1 1 0 0 0 .26 1.37c2.16 1.5.72 4.87-1.61 4.52A1 1 0 0 0 29 19v1a1 1 0 0 1-1.18 1c-1.47-.24-.48-2.89-.93-3.79a3 3 0 0 0-5.78 0c-.15.31-.11.15-.11 4.8a1 1 0 1 1-2-.12c0-4.72.22-5.2-.67-5.51C17.08 15.9 17 18 14.5 18a3.49 3.49 0 0 1-.35-7zM29 22.83V36a1 1 0 0 1-1 1H16a1 1 0 0 1-1-1c0-18-.22-15.93.52-16.1a5.66 5.66 0 0 0 1.48-.5v2.48a3 3 0 0 0 5.17 2.18c2-2-.45-7.06 1.83-7.06a1 1 0 0 1 1 .83s0 .05 0 .07c0 2.5-.32 4.14 2.38 5a3 3 0 0 0 1.62-.07zM32 40a1 1 0 0 1-1 1H13a1 1 0 0 1-1-1V19.41a6.2 6.2 0 0 0 .68.28c.46.17.32-1.63.32 16.31a3 3 0 0 0 3 3h12a3 3 0 0 0 3-3V20c0-.1-.08 0 .4-.09.86-.16.6-2.07.6 20.09zm7-12a3 3 0 0 1-3 3h-2V19h2a3 3 0 0 1 3 3z" data-original="#131239"></path></g></svg>