<svg xmlns="http://www.w3.org/2000/svg" version="1.1" xmlns:xlink="http://www.w3.org/1999/xlink" xmlns:svgjs="http://svgjs.com/svgjs" width="512" height="512" x="0" y="0" viewBox="0 0 682.667 682.667" style="enable-background:new 0 0 512 512" xml:space="preserve" class=""><g><defs><clipPath id="a" clipPathUnits="userSpaceOnUse"><path d="M0 512h512V0H0Z" fill="#000000" data-original="#000000"></path></clipPath></defs><g clip-path="url(#a)" transform="matrix(1.33333 0 0 -1.33333 0 682.667)"><path d="m0 0-22.307-150.827a209.026 209.026 0 0 0-13.511-42.33h-.001a208.985 208.985 0 0 1-17.782-84.358v-203.821H59.673c16.122 0 29.191 13.07 29.191 29.192v174.629c0 29.05-7.055 57.78-18.781 84.358-5.996 13.59-9.525 27.78-12.513 42.33L35.264 0Z" style="fill-opacity:1;fill-rule:nonzero;stroke:none" transform="translate(380.343 488.836)" data-original="#867cc1" class="" fill="#ffd000"></path><path d="M0 0v-20.42l-10-69.131 10-44.32v-40.759c0-16.12-13.07-29.19-29.19-29.19h-20c16.12 0 29.19 13.07 29.19 29.19v40.759l10 60.29-10 53.161V0c0 29.05-6.06 57.78-17.78 84.359-3 6.801-5.63 13.741-7.89 20.801a212.803 212.803 0 0 0-5.63 21.529L-73.6 277.52h20l22.3-150.831c1.5-7.269 3.38-14.46 5.63-21.529 2.26-7.06 4.89-14 7.89-20.801A209.091 209.091 0 0 0 0 0" style="fill-opacity:1;fill-rule:nonzero;stroke:none" transform="translate(479.209 211.32)" data-original="#6e63b7" class="" fill="#ffd000"></path><path d="M0 0h-38.793a5 5 0 0 0-5 5v11.837c0 7.488 6.07 13.559 13.559 13.559h21.675C-1.07 30.396 5 24.325 5 16.837V5a5 5 0 0 0-5-5" style="fill-opacity:1;fill-rule:nonzero;stroke:none" transform="translate(412.371 474.104)" fill="#ffd271" data-original="#ffd271" class=""></path><path d="M0 0v-11.84c0-2.76-2.24-5-5-5h-30c2.76 0 5 2.24 5 5V0c0 7.49-6.07 13.56-13.56 13.56h30C-6.07 13.56 0 7.49 0 0" style="fill-opacity:1;fill-rule:nonzero;stroke:none" transform="translate(437.37 490.94)" fill="#ffc55e" data-original="#ffc55e" class=""></path><path d="M469.209 77.45h-142.47V190.9h142.47z" style="fill-opacity:1;fill-rule:nonzero;stroke:none" fill="#f2fbff" data-original="#f2fbff" class=""></path><path d="M0 0h59.09L41.52-113.45H0Z" style="fill-opacity:1;fill-rule:nonzero;stroke:none" transform="translate(326.74 190.9)" fill="#f2fbff" data-original="#f2fbff" class=""></path><path d="M479.209 77.45h-20V190.9h20z" style="fill-opacity:1;fill-rule:nonzero;stroke:none" fill="#dff6fd" data-original="#dff6fd"></path><path d="m0 0-19.999-1h-39.92c-1.773 0-3.269 1.363-3.48 3.176l-12.932 27.819a4.366 4.366 0 0 0-.358 1.182l-30.403 196.363H47.174L16.771 31.177a4.401 4.401 0 0 0-.358-1.182Z" style="fill-opacity:1;fill-rule:nonzero;stroke:none" transform="translate(335.639 8.5)" fill="#ff6d73" data-original="#ff6d73"></path><path d="M0 0h-51.679c-31.747 0-57.576 25.829-57.576 57.577v61.497c0 31.748 25.829 57.577 57.576 57.577h50.638v-35h-50.638c-12.448 0-22.576-10.128-22.576-22.577V57.577C-74.255 45.128-64.127 35-51.679 35H0Z" style="fill-opacity:1;fill-rule:nonzero;stroke:none" transform="translate(142.046 56.916)" fill="#f2fbff" data-original="#f2fbff" class=""></path><path d="M0 0h-30l16.41 31c.18.37.3.77.361 1.18l30.4 196.36h30l-12.897-83.299-11.161-7.5 8.839-7.5-1.606-10.377-11.16-7.494 8.838-7.499-1.603-10.358L15.258 87l8.842-7.476-7.329-47.344A4.068 4.068 0 0 0 16.41 31Z" style="fill-opacity:1;fill-rule:nonzero;stroke:none" transform="translate(345.639 7.5)" fill="#ff555a" data-original="#ff555a"></path><path d="M0 0h-137.762c-7.37 0-13.345 5.975-13.345 13.345v9.33c0 7.37 5.975 13.345 13.345 13.345H0c7.37 0 13.345-5.975 13.345-13.345v-9.33C13.345 5.975 7.37 0 0 0" style="fill-opacity:1;fill-rule:nonzero;stroke:none" transform="translate(369.56 222.189)" fill="#f2fbff" data-original="#f2fbff" class=""></path><path d="M0 0v-9.33c0-7.37-5.98-13.34-13.35-13.34h-30C-35.98-22.67-30-16.7-30-9.33V0c0 7.37-5.98 13.35-13.35 13.35h30C-5.98 13.35 0 7.37 0 0" style="fill-opacity:1;fill-rule:nonzero;stroke:none" transform="translate(402.91 244.86)" fill="#dff6fd" data-original="#dff6fd"></path><path d="M0 0h-161.5c-5.523 0-9 3.477-9 9l-1 30v200.668l1 32.077c0 5.523 3.477 10 9 10l152.5-1c5.522 0 9-3.477 9-9V39Z" style="fill-opacity:1;fill-rule:nonzero;stroke:none" transform="translate(275.291 8.5)" fill="#ffd271" data-original="#ffd271" class=""></path><path d="m0 0 1-32.07v-200.67l-10-30h-10l-10 30.037V-44.2L-28 0c0 5.53-4.48 10-10 10l29-1c5.52 0 9-3.47 9-9" style="fill-opacity:1;fill-rule:nonzero;stroke:none" transform="translate(275.29 280.24)" fill="#ffc55e" data-original="#ffc55e" class=""></path><path d="m0 0 1-32.07c-21.56 0-21.56-14-43.13-14-21.56 0-21.56 14-43.12 14s-21.56-14-43.13-14c-21.56 0-21.56 14-43.12 14V0c0 5.53 4.48 10 10 10H-39l30-1c5.52 0 9-3.47 9-9" style="fill-opacity:1;fill-rule:nonzero;stroke:none" transform="translate(275.29 280.24)" fill="#f2fbff" data-original="#f2fbff" class=""></path><path d="M0 0v-32.07c-16 0-20.12-7.71-30-11.68V0c0 5.53-4.48 10-10 10h30C-4.48 10 0 5.53 0 0" style="fill-opacity:1;fill-rule:nonzero;stroke:none" transform="translate(276.29 280.24)" fill="#dff6fd" data-original="#dff6fd"></path><path d="M0 0v-40h-142.5c-5.52 0-10 4.48-10 10V0Z" style="fill-opacity:1;fill-rule:nonzero;stroke:none" transform="translate(256.29 47.5)" fill="#f2fbff" data-original="#f2fbff" class=""></path><path d="M276.289 7.5h-30v40h30z" style="fill-opacity:1;fill-rule:nonzero;stroke:none" fill="#dff6fd" data-original="#dff6fd"></path><path d="M0 0c0-26.483-20.469-46.952-46.952-46.952-5.309 0-10.416-.138-15.188 1.455C-81.18-39.145-94.904-21.175-94.904 0c0 21.152 13.695 39.106 32.703 45.477 4.79 1.605 9.918 1.475 15.249 1.475C-20.469 46.952 0 26.483 0 0" style="fill-opacity:1;fill-rule:nonzero;stroke:none" transform="translate(236.993 397.179)" fill="#ffd271" data-original="#ffd271" class=""></path><path d="M0 0c0-26.479-21.459-47.95-47.95-47.95-5.24 0-10.28.841-15 2.4C-43.81-39.26-30-21.24-30 0s-13.81 39.26-32.95 45.55c4.72 1.56 9.76 2.4 15 2.4C-21.459 47.95 0 26.48 0 0" style="fill-opacity:1;fill-rule:nonzero;stroke:none" transform="translate(237.989 397.18)" fill="#ffc55e" data-original="#ffc55e" class=""></path><path d="M0 0v12.146c0 31.748 25.829 57.576 57.576 57.576h13.186" style="stroke-width:15;stroke-linecap:round;stroke-linejoin:round;stroke-miterlimit:10;stroke-dasharray:none;stroke-opacity:1" transform="translate(32.792 163.845)" fill="none" stroke="#000000" stroke-width="15" stroke-linecap="round" stroke-linejoin="round" stroke-miterlimit="10" stroke-dasharray="none" stroke-opacity="" data-original="#000000" class=""></path><path d="M0 0h-13.186c-31.747 0-57.576 25.829-57.576 57.577v16.004" style="stroke-width:15;stroke-linecap:round;stroke-linejoin:round;stroke-miterlimit:10;stroke-dasharray:none;stroke-opacity:1" transform="translate(103.554 56.916)" fill="none" stroke="#000000" stroke-width="15" stroke-linecap="round" stroke-linejoin="round" stroke-miterlimit="10" stroke-dasharray="none" stroke-opacity="" data-original="#000000" class=""></path><path d="M0 0h-13.186c-12.449 0-22.576-10.128-22.576-22.577v-61.497c0-12.449 10.127-22.577 22.576-22.577H.059" style="stroke-width:15;stroke-linecap:round;stroke-linejoin:round;stroke-miterlimit:10;stroke-dasharray:none;stroke-opacity:1" transform="translate(103.554 198.567)" fill="none" stroke="#000000" stroke-width="15" stroke-linecap="round" stroke-linejoin="round" stroke-miterlimit="10" stroke-dasharray="none" stroke-opacity="" data-original="#000000" class=""></path><path d="m0 0-13.686 92.533" style="stroke-width:15;stroke-linecap:round;stroke-linejoin:round;stroke-miterlimit:10;stroke-dasharray:none;stroke-opacity:1" transform="translate(441.472 381.572)" fill="none" stroke="#000000" stroke-width="15" stroke-linecap="round" stroke-linejoin="round" stroke-miterlimit="10" stroke-dasharray="none" stroke-opacity="" data-original="#000000" class=""></path><path d="M0 0h104.056c16.123 0 29.192 13.07 29.192 29.192v174.629a209 209 0 0 1-17.781 84.358 208.969 208.969 0 0 0-13.513 42.33l-1.659 11.218" style="stroke-width:15;stroke-linecap:round;stroke-linejoin:round;stroke-miterlimit:10;stroke-dasharray:none;stroke-opacity:1" transform="translate(345.96 7.5)" fill="none" stroke="#000000" stroke-width="15" stroke-linecap="round" stroke-linejoin="round" stroke-miterlimit="10" stroke-dasharray="none" stroke-opacity="" data-original="#000000" class=""></path><path d="m0 0-20.128-136.096a208.94 208.94 0 0 0-13.513-42.329 209.11 209.11 0 0 1-12.454-37.471" style="stroke-width:15;stroke-linecap:round;stroke-linejoin:round;stroke-miterlimit:10;stroke-dasharray:none;stroke-opacity:1" transform="translate(378.165 474.104)" fill="none" stroke="#000000" stroke-width="15" stroke-linecap="round" stroke-linejoin="round" stroke-miterlimit="10" stroke-dasharray="none" stroke-opacity="" data-original="#000000" class=""></path><path d="M0 0h-58.793a5 5 0 0 0-5 5v11.837c0 7.488 6.07 13.559 13.559 13.559h41.675C-1.07 30.396 5 24.325 5 16.837V5a5 5 0 0 0-5-5Z" style="stroke-width:15;stroke-linecap:round;stroke-linejoin:round;stroke-miterlimit:10;stroke-dasharray:none;stroke-opacity:1" transform="translate(432.372 474.104)" fill="none" stroke="#000000" stroke-width="15" stroke-linecap="round" stroke-linejoin="round" stroke-miterlimit="10" stroke-dasharray="none" stroke-opacity="" data-original="#000000" class=""></path><path d="M0 0h90.455" style="stroke-width:15;stroke-linecap:round;stroke-linejoin:round;stroke-miterlimit:10;stroke-dasharray:none;stroke-opacity:1" transform="translate(385.823 190.897)" fill="none" stroke="#000000" stroke-width="15" stroke-linecap="round" stroke-linejoin="round" stroke-miterlimit="10" stroke-dasharray="none" stroke-opacity="" data-original="#000000" class=""></path><path d="M0 0h110.948" style="stroke-width:15;stroke-linecap:round;stroke-linejoin:round;stroke-miterlimit:10;stroke-dasharray:none;stroke-opacity:1" transform="translate(368.26 77.455)" fill="none" stroke="#000000" stroke-width="15" stroke-linecap="round" stroke-linejoin="round" stroke-miterlimit="10" stroke-dasharray="none" stroke-opacity="" data-original="#000000" class=""></path><path d="m0 0-28.259-182.512a4.368 4.368 0 0 0-.357-1.181l-16.413-30.995h-69.348" style="stroke-width:15;stroke-linecap:round;stroke-linejoin:round;stroke-miterlimit:10;stroke-dasharray:none;stroke-opacity:1" transform="translate(390.669 222.189)" fill="none" stroke="#000000" stroke-width="15" stroke-linecap="round" stroke-linejoin="round" stroke-miterlimit="10" stroke-dasharray="none" stroke-opacity="" data-original="#000000" class=""></path><path d="M0 0h-39.48" style="stroke-width:15;stroke-linecap:round;stroke-linejoin:round;stroke-miterlimit:10;stroke-dasharray:none;stroke-opacity:1" transform="translate(315.772 222.189)" fill="none" stroke="#000000" stroke-width="15" stroke-linecap="round" stroke-linejoin="round" stroke-miterlimit="10" stroke-dasharray="none" stroke-opacity="" data-original="#000000" class=""></path><path d="M0 0h113.27c7.37 0 13.344-5.975 13.344-13.345v-9.329c0-7.37-5.974-13.346-13.344-13.346H72.166" style="stroke-width:15;stroke-linecap:round;stroke-linejoin:round;stroke-miterlimit:10;stroke-dasharray:none;stroke-opacity:1" transform="translate(276.292 258.208)" fill="none" stroke="#000000" stroke-width="15" stroke-linecap="round" stroke-linejoin="round" stroke-miterlimit="10" stroke-dasharray="none" stroke-opacity="" data-original="#000000" class=""></path><path d="M0 0h102.463" style="stroke-width:15;stroke-linecap:round;stroke-linejoin:round;stroke-miterlimit:10;stroke-dasharray:none;stroke-opacity:1" transform="translate(276.292 145.242)" fill="none" stroke="#000000" stroke-width="15" stroke-linecap="round" stroke-linejoin="round" stroke-miterlimit="10" stroke-dasharray="none" stroke-opacity="" data-original="#000000" class=""></path><path d="M0 0h98.535" style="stroke-width:15;stroke-linecap:round;stroke-linejoin:round;stroke-miterlimit:10;stroke-dasharray:none;stroke-opacity:1" transform="translate(276.292 119.87)" fill="none" stroke="#000000" stroke-width="15" stroke-linecap="round" stroke-linejoin="round" stroke-miterlimit="10" stroke-dasharray="none" stroke-opacity="" data-original="#000000" class=""></path><path d="M0 0h94.606" style="stroke-width:15;stroke-linecap:round;stroke-linejoin:round;stroke-miterlimit:10;stroke-dasharray:none;stroke-opacity:1" transform="translate(276.292 94.498)" fill="none" stroke="#000000" stroke-width="15" stroke-linecap="round" stroke-linejoin="round" stroke-miterlimit="10" stroke-dasharray="none" stroke-opacity="" data-original="#000000" class=""></path><path d="M0 0h-162.5c-5.523 0-10 4.477-10 10v262.745c0 5.523 4.477 10 10 10H-10c5.522 0 10-4.477 10-10z" style="stroke-width:15;stroke-linecap:round;stroke-linejoin:round;stroke-miterlimit:10;stroke-dasharray:none;stroke-opacity:1" transform="translate(276.292 7.5)" fill="none" stroke="#000000" stroke-width="15" stroke-linecap="round" stroke-linejoin="round" stroke-miterlimit="10" stroke-dasharray="none" stroke-opacity="" data-original="#000000" class=""></path><path d="M0 0h-172.5" style="stroke-width:15;stroke-linecap:round;stroke-linejoin:round;stroke-miterlimit:10;stroke-dasharray:none;stroke-opacity:1" transform="translate(276.292 47.5)" fill="none" stroke="#000000" stroke-width="15" stroke-linecap="round" stroke-linejoin="round" stroke-miterlimit="10" stroke-dasharray="none" stroke-opacity="" data-original="#000000" class=""></path><path d="M0 0v78.25" style="stroke-width:15;stroke-linecap:round;stroke-linejoin:round;stroke-miterlimit:10;stroke-dasharray:none;stroke-opacity:1" transform="translate(163.042 106.117)" fill="none" stroke="#000000" stroke-width="15" stroke-linecap="round" stroke-linejoin="round" stroke-miterlimit="10" stroke-dasharray="none" stroke-opacity="" data-original="#000000" class=""></path><path d="M0 0v78.25" style="stroke-width:15;stroke-linecap:round;stroke-linejoin:round;stroke-miterlimit:10;stroke-dasharray:none;stroke-opacity:1" transform="translate(217.042 106.117)" fill="none" stroke="#000000" stroke-width="15" stroke-linecap="round" stroke-linejoin="round" stroke-miterlimit="10" stroke-dasharray="none" stroke-opacity="" data-original="#000000" class=""></path><path d="M0 0c21.562 0 21.562-14 43.123-14C64.684-14 64.684 0 86.245 0c21.564 0 21.564-14 43.128-14S150.937 0 172.5 0" style="stroke-width:15;stroke-linecap:round;stroke-linejoin:round;stroke-miterlimit:10;stroke-dasharray:none;stroke-opacity:1" transform="translate(103.791 248.168)" fill="none" stroke="#000000" stroke-width="15" stroke-linecap="round" stroke-linejoin="round" stroke-miterlimit="10" stroke-dasharray="none" stroke-opacity="" data-original="#000000" class=""></path><path d="M0 0c0-26.483-21.469-47.952-47.952-47.952-26.483 0-47.952 21.469-47.952 47.952 0 26.483 21.469 47.952 47.952 47.952C-21.469 47.952 0 26.483 0 0Z" style="stroke-width:15;stroke-linecap:round;stroke-linejoin:round;stroke-miterlimit:10;stroke-dasharray:none;stroke-opacity:1" transform="translate(237.994 397.179)" fill="none" stroke="#000000" stroke-width="15" stroke-linecap="round" stroke-linejoin="round" stroke-miterlimit="10" stroke-dasharray="none" stroke-opacity="" data-original="#000000" class=""></path></g></g></svg>