<svg  xmlns="http://www.w3.org/2000/svg" version="1.1" xmlns:xlink="http://www.w3.org/1999/xlink" xmlns:svgjs="http://svgjs.com/svgjs" width="512" height="512" x="0" y="0" viewBox="0 0 64 64" style="enable-background:new 0 0 512 512" xml:space="preserve" class="fish"><g><path d="M13.218 14.541a1.54 1.54 0 1 1 0 3.079 1.54 1.54 0 0 1 0-3.079zM58.8 31.491c-.014-.083-.95-6.439-4.228-12.102-.003-.007.001.005 0 0C52.29 13.02 44.333.77 35.42.008c-1.167-.099-2.662.69-3.398 4.813-2.609-.277-5.46-.31-8.595-.026-1.758.16-3.702.589-5.618 1.236-6.901 2.296-14.496 7.593-13.19 14.966 1.094 6.206 5.739 7.215 15.762 6.983.208.813.448 1.472.508 1.63.5 1.327 1.92 4.477 4.288 5.068.23.057.459.085.688.085 1.07 0 2.113-.619 2.938-1.769.955-1.33 1.558-3.34 1.385-5.09 2.16.142 4.163.415 5.95.831 6.86 1.588 11.113 5.222 12.7 10.768-2.395 1.189-4.894 2.05-7.07 2.795-3.421 1.171-5.68 1.945-6.06 3.478-.107.433-.357 1.45.372 2.64 1.208 1.974 4.623 3.633 10.426 5.065-1.095 4.202-1.78 9.125.537 10.355.215.114.452.164.7.164.826 0 1.78-.546 2.512-1.075 4.293-3.107 11.605-13.675 8.543-31.433zM35.26 1.502l.036.001c5.187.444 10.525 5.66 14.164 11.183a26.836 26.836 0 0 0-6.472-4.683c.052-.103.105-.207.156-.302a.75.75 0 1 0-1.319-.715c-.063.116-.126.243-.188.368a28.364 28.364 0 0 0-1.817-.743c.137-.334.281-.65.428-.955a.75.75 0 0 0-1.352-.65c-.169.352-.338.717-.49 1.096l-.005.014a30.825 30.825 0 0 0-1.888-.527c.026-.07.38-.946.553-1.258a.75.75 0 0 0-1.313-.726c-.193.35-.384.762-.57 1.236-.058.153-.095.293-.147.442a34.092 34.092 0 0 0-1.52-.264C33.964 2.605 34.703 1.5 35.26 1.5zM23.564 6.29c12.462-1.132 20.359 2.848 25.346 7.98-1.031.592-2 .86-2.931.787-.572-.044-.856-.184-1.252-.378-.461-.227-1.036-.51-2.094-.62-2.16-.214-3.432.374-4.556.893-.994.46-1.846.858-3.32.767-1.514-.098-2.626-1.272-3.701-2.407-1.016-1.073-1.976-2.086-3.265-2.18-1.293-.108-2.084.484-2.718.952-.512.379-.954.706-1.673.747-.675.031-1.373-.183-2.094-.635-.536-1.717-1.272-3.388-2.163-5.007 1.524-.459 3.038-.774 4.421-.9zM7.403 23.877c.371.05.742.096 1.115.096.196 0 .391-.007.587-.02a8.73 8.73 0 0 0 2.683-.63.75.75 0 0 0-.576-1.386 7.202 7.202 0 0 1-2.214.52 7.172 7.172 0 0 1-2.533-.297 9.158 9.158 0 0 1-.368-1.424c-1.035-5.845 4.989-10.71 11.599-13.071 1.234 2.188 2.146 4.483 2.681 6.844.715 3.149.792 6.396.26 9.654a1.231 1.231 0 0 0-.262.258c-.334.483-.371 1.261-.279 2.07-7.316.152-10.94-.479-12.693-2.614zm20.182 8.243c-.366.51-1.119 1.333-2.044 1.102-1.005-.25-2.065-1.463-2.91-3.326-.944-2.084-1.197-4.058-1.039-4.573 1.048-.454 6.087.467 6.724 1.458.765 1.193.418 3.738-.731 5.34zm1.993-6.15c-.963-1.5-5.01-2.21-6.862-2.24-.193-.006-.347.007-.515.014.449-3.228.348-6.442-.361-9.568-.006-.025-.015-.05-.021-.077.558.182 1.116.261 1.67.23 1.162-.067 1.89-.606 2.476-1.039.565-.417.968-.72 1.715-.662.711.052 1.477.86 2.287 1.716 1.155 1.219 2.592 2.736 4.696 2.872.17.01.333.015.49.015 1.569 0 2.618-.485 3.554-.918 1.041-.48 2.023-.935 3.773-.763.789.083 1.176.274 1.586.475.44.217.939.462 1.794.528 1.307.107 2.683-.302 4.08-1.164 5.841 6.73 7.133 14.856 7.31 16.187-.832 1.84-2.023 3.359-3.427 4.63.904-4.28-.404-9.112-3.334-11.268-2.446-1.792-4.55-.532-6.089.389-.705.424-1.373.823-1.928.881-.63.062-.99-.18-1.474-.516-.604-.423-1.355-.95-2.66-.74-1.018.166-1.831.928-2.45 2.201-1.858-.395-3.907-.658-6.115-.78-.064-.135-.115-.278-.195-.403zm7.79 1.533c.356-.635.761-.997 1.21-1.07.696-.111 1.043.126 1.562.488.572.4 1.283.895 2.484.78.89-.094 1.732-.6 2.547-1.088 1.495-.897 2.789-1.671 4.43-.466 2.551 1.877 4.014 7.35 2.15 11.678-.5.338-1.016.652-1.54.95-1.731-5.69-6.047-9.476-12.844-11.272zM50.65 60.627c-1.567 1.522-2.655 1.95-2.903 1.884-.95-.505-1.192-3.6.407-9.379a.749.749 0 0 0-.55-.93c-7.19-1.69-9.538-3.417-10.244-4.57-.37-.605-.299-1.071-.195-1.497.183-.739 2.79-1.63 5.09-2.417 4.797-1.642 11.796-4.038 15.403-9.727 1.64 12.97-2.443 22.205-7.008 26.636zm4.724-19.917a.749.749 0 1 0-1.06-1.06 20.45 20.45 0 0 1-7.864 4.895.752.752 0 0 0 .242 1.462c.081 0 .163-.014.242-.04a21.89 21.89 0 0 0 8.44-5.256zm.471 3.61a.75.75 0 0 0-1.247-.833 22.428 22.428 0 0 1-2.558 3.17 22.342 22.342 0 0 1-1.942 1.778.751.751 0 0 0 .948 1.164 24.21 24.21 0 0 0 2.071-1.896 23.92 23.92 0 0 0 2.728-3.383zm-.027 3.462a.746.746 0 0 0-.96.448 24.328 24.328 0 0 1-2.587 5.12.751.751 0 0 0 1.25.83 25.808 25.808 0 0 0 2.745-5.438.75.75 0 0 0-.448-.96zM26.215 26.764l-1.568-.377a.75.75 0 0 0-.35 1.459l1.568.377a.75.75 0 0 0 .35-1.459zm-1.707 1.683a.749.749 0 1 0-1.164.946l1.258 1.55a.747.747 0 0 0 1.055.11.75.75 0 0 0 .11-1.054z" fill="#000000" data-original="#000000" class=""></path></g></svg>