<svg xmlns="http://www.w3.org/2000/svg" version="1.1" xmlns:xlink="http://www.w3.org/1999/xlink" xmlns:svgjs="http://svgjs.com/svgjs" width="512" height="512" x="0" y="0" viewBox="0 0 64 64" style="enable-background:new 0 0 512 512" xml:space="preserve" class="hovered-paths"><g><g data-name="06-whiskey"><rect width="12" height="5" x="19" y="1" fill="#ffdb8f" rx="1.769" data-original="#ffdb8f"></rect><path fill="#ffe9bc" d="M25 1h-4.231A1.769 1.769 0 0 0 19 2.769v1.462A1.769 1.769 0 0 0 20.769 6H25z" data-original="#ffe9bc"></path><rect width="12" height="5" x="19" y="6" fill="#fcd44b" rx="1.769" data-original="#fcd44b"></rect><path fill="#fddd6f" d="M25 6h-4.231A1.769 1.769 0 0 0 19 7.769v1.462A1.769 1.769 0 0 0 20.769 11H25z" data-original="#fddd6f"></path><path fill="#ed932b" d="M29 19.513V11h-8v8.513a4.4 4.4 0 0 1-2.3 3.848C12.575 26.735 8.253 34.881 8.253 44.4c0 7.3 2.546 13.781 6.494 17.933A2.217 2.217 0 0 0 16.36 63h15.591a2.256 2.256 0 0 0 1.349-.435c5.079-3.784 8.447-9.683 8.447-18.166 0-9.518-4.322-17.664-10.449-21.038A4.4 4.4 0 0 1 29 19.513z" data-original="#ed932b"></path><path fill="#f9c98b" d="M12.253 44.4c0-9.518 4.322-17.664 10.449-21.038A4.4 4.4 0 0 0 25 19.513V11h-4v8.513a4.4 4.4 0 0 1-2.3 3.848C12.575 26.735 8.253 34.881 8.253 44.4c0 7.3 2.546 13.781 6.494 17.933A2.217 2.217 0 0 0 16.36 63h4a2.217 2.217 0 0 1-1.613-.668C14.8 58.18 12.253 51.7 12.253 44.4z" data-original="#f9c98b"></path><rect width="22" height="13" x="14" y="34" fill="#ffce56" rx="1.453" data-original="#ffce56"></rect><path fill="#b8e4f8" d="M55.57 63H36.704l-3.431-36H59z" data-original="#b8e4f8"></path><path fill="#e3f4fc" d="m33.273 27 3.431 36h4l-3.431-36z" data-original="#e3f4fc"></path><path fill="#c0392c" d="m34.607 41 2.097 22H55.57l2.096-22z" data-original="#c0392c"></path><path fill="#d98880" d="m34.607 41 2.097 22h4l-2.097-22z" data-original="#d98880"></path><path d="M32 48H15.413A2.437 2.437 0 0 1 13 45.547V35.453A2.437 2.437 0 0 1 15.413 33H32v2H15.413a.435.435 0 0 0-.413.453v10.094a.435.435 0 0 0 .413.453H32z" fill="#000000" data-original="#000000" class="hovered-path"></path><path d="M32.7 61.763a1.26 1.26 0 0 1-.751.237H16.36a1.221 1.221 0 0 1-.888-.357C11.52 57.487 9.253 51.2 9.253 44.4c0-8.926 3.9-16.84 9.932-20.162A5.405 5.405 0 0 0 22 19.513V12h6v7.513a5.405 5.405 0 0 0 2.815 4.724l.965-1.752A3.4 3.4 0 0 1 30 19.513v-7.635a2.765 2.765 0 0 0 2-2.648V7.77A2.741 2.741 0 0 0 31.343 6 2.741 2.741 0 0 0 32 4.23V2.77A2.772 2.772 0 0 0 29.23 0h-8.46A2.772 2.772 0 0 0 18 2.77v1.46A2.741 2.741 0 0 0 18.657 6 2.741 2.741 0 0 0 18 7.77v1.46a2.765 2.765 0 0 0 2 2.648v7.635a3.4 3.4 0 0 1-1.78 2.972C11.558 26.153 7.253 34.755 7.253 44.4c0 7.31 2.468 14.1 6.769 18.622A3.231 3.231 0 0 0 16.36 64h15.591a3.27 3.27 0 0 0 1.946-.633zM30 9.23a.77.77 0 0 1-.77.77h-8.46a.77.77 0 0 1-.77-.77V7.77a.77.77 0 0 1 .77-.77h8.46a.77.77 0 0 1 .77.77zM20 2.77a.77.77 0 0 1 .77-.77h8.46a.77.77 0 0 1 .77.77v1.46a.77.77 0 0 1-.77.77h-8.46a.77.77 0 0 1-.77-.77zM49 58h2v2h-2zM50 54h2v2h-2zM45 58h2v2h-2zM34 40h24v2H34z" fill="#000000" data-original="#000000" class="hovered-path"></path><path d="M59.74 26.327A1 1 0 0 0 59 26H33.273a1 1 0 0 0-1 1.095l3.43 36a1 1 0 0 0 1 .905H55.57a1 1 0 0 0 .995-.905L60 27.1a1.006 1.006 0 0 0-.26-.773zM54.661 62H37.613l-3.24-34H57.9l-.19 2H48v2h9.519l-.19 2H51v2h6.138zM17 40h2v2h-2zM21 40h2v2h-2zM25 40h2v2h-2zM29 40h2v2h-2zM35.751 20.83l1.414-1.414 1.414 1.414-1.414 1.414zM41.407 20.831l1.414-1.414 1.414 1.414-1.414 1.414zM41.407 15.175l1.414-1.414 1.414 1.414-1.414 1.414zM35.752 15.173l1.414-1.414 1.414 1.414-1.414 1.414zM3.754 24.826l1.414-1.414 1.414 1.414-1.414 1.414zM9.41 24.827l1.414-1.414 1.414 1.414-1.414 1.414zM9.41 19.17l1.414-1.413 1.414 1.414-1.414 1.414zM3.755 19.17l1.414-1.415 1.414 1.414-1.414 1.414zM18.973 60a5.006 5.006 0 0 1-5-5h2a3 3 0 0 0 3 3zM21 58h2v2h-2z" fill="#000000" data-original="#000000" class="hovered-path"></path></g></g></svg>